<?xml version="1.0" encoding="UTF-8" standalone="no"?>
<svg
   xmlns:dc="http://purl.org/dc/elements/1.1/"
   xmlns:cc="http://creativecommons.org/ns#"
   xmlns:rdf="http://www.w3.org/1999/02/22-rdf-syntax-ns#"
   xmlns:svg="http://www.w3.org/2000/svg"
   xmlns="http://www.w3.org/2000/svg"
   height="64"
   width="64"
   xml:space="preserve"
   viewBox="0 0 64 64"
   y="0px"
   x="0px"
   id="Layer_1"
   version="1.1"><metadata
   id="metadata43"><rdf:RDF><cc:Work
       rdf:about=""><dc:format>image/svg+xml</dc:format><dc:type
         rdf:resource="http://purl.org/dc/dcmitype/StillImage" /><dc:title></dc:title></cc:Work></rdf:RDF></metadata><defs
   id="defs41" />
<g
   transform="translate(0,-448)"
   id="g6"
   style="fill:#dddddd;fill-opacity:1">
	
<g
   transform="matrix(0.12500015,0,0,0.12500015,-3.8399983e-5,448)"
   style="fill:#dddddd;fill-opacity:1"
   id="g4">
		<path
   style="fill:#dddddd;fill-opacity:1"
   id="path2"
   d="M 256,0 C 153.755,0 70.573,83.182 70.573,185.426 c 0,126.888 165.939,313.167 173.004,321.035 6.636,7.391 18.222,7.378 24.846,0 7.065,-7.868 173.004,-194.147 173.004,-321.035 C 441.425,83.182 358.244,0 256,0 Z m 0,278.719 c -51.442,0 -93.292,-41.851 -93.292,-93.293 0,-51.442 41.851,-93.292 93.292,-93.292 51.441,0 93.291,41.851 93.291,93.293 0,51.442 -41.85,93.292 -93.291,93.292 z" />
	</g></g>
<g
   transform="translate(0,-448)"
   id="g8">
</g>
<g
   transform="translate(0,-448)"
   id="g10">
</g>
<g
   transform="translate(0,-448)"
   id="g12">
</g>
<g
   transform="translate(0,-448)"
   id="g14">
</g>
<g
   transform="translate(0,-448)"
   id="g16">
</g>
<g
   transform="translate(0,-448)"
   id="g18">
</g>
<g
   transform="translate(0,-448)"
   id="g20">
</g>
<g
   transform="translate(0,-448)"
   id="g22">
</g>
<g
   transform="translate(0,-448)"
   id="g24">
</g>
<g
   transform="translate(0,-448)"
   id="g26">
</g>
<g
   transform="translate(0,-448)"
   id="g28">
</g>
<g
   transform="translate(0,-448)"
   id="g30">
</g>
<g
   transform="translate(0,-448)"
   id="g32">
</g>
<g
   transform="translate(0,-448)"
   id="g34">
</g>
<g
   transform="translate(0,-448)"
   id="g36">
</g>
</svg>